<svg width="500" height="500" viewBox="0 0 500 500" fill="none" xmlns="http://www.w3.org/2000/svg">
<path fill-rule="evenodd" clip-rule="evenodd" d="M500 250C500 349.908 441.395 436.129 356.686 476.158V398.769L368.457 392.883V260.452L356.686 254.566V175.107H344.914V233.965L306.656 189.821V130.963L247.798 16.1892L194.825 130.963V189.821L159.51 233.965V175.107H147.738V254.566L130.081 260.452V392.883L147.738 398.769V478.196C60.6529 439.111 0 351.638 0 250C0 111.929 111.929 0 250 0C388.071 0 500 111.929 500 250ZM147.738 478.196C178.955 492.207 213.567 500 250 500C288.163 500 324.329 491.449 356.686 476.158L355.035 476.997L353.597 477.592L352.033 478.299L350.479 478.988L348.958 479.65L347.358 480.334L345.714 481.023L344.184 481.651L342.448 482.35L340.991 482.925L338.976 483.703L337.674 484.195L336.016 484.809L334.367 485.407L332.598 486.033L331.163 486.53L329.521 487.081L327.879 487.631L326.184 488.173L324.488 488.715L322.834 489.218L321.181 489.721L319.444 490.222L317.708 490.723L315.972 491.203L314.236 491.67L312.5 492.124L310.764 492.564L309.028 492.991L307.431 493.372L305.556 493.805L303.82 494.193L302.083 494.567L300.347 494.928L298.611 495.277L297.093 495.571L295.365 495.894L293.837 496.169L291.954 496.495L290.365 496.758L288.628 497.034L286.746 497.319L285.156 497.547L283.653 497.754L282.118 497.956L280.382 498.173L278.646 498.377L276.91 498.569L275.434 498.722L273.712 498.89L271.955 499.049L270.252 499.192L268.481 499.321L266.711 499.45L265.083 499.547L263.455 499.644L261.719 499.73L259.983 499.804L258.247 499.867L256.51 499.917L254.992 499.947L253.473 499.976L251.736 500H250L248.264 499.994L246.528 499.976L244.792 499.947L243.056 499.905L241.146 499.846L239.583 499.787L237.847 499.71L236.111 499.621L234.375 499.52L232.639 499.407L230.903 499.281L229.167 499.144L227.431 498.995L225.943 498.857L223.958 498.66L222.222 498.474L220.486 498.276L218.893 498.084L217.294 497.88L215.712 497.668L214.15 497.449L212.57 497.217L210.938 496.966L209.201 496.687L207.624 496.423L206.024 496.145L204.311 495.835L202.691 495.53L201.13 495.226L199.543 494.906L197.702 494.521L196.181 494.193L195.312 494L194.634 493.848L194.01 493.706L193.232 493.527L192.569 493.372L191.84 493.199L190.972 492.991L190.104 492.779L189.236 492.564L188.484 492.375L187.748 492.188L187.126 492.027L186.437 491.848L185.764 491.67L184.896 491.439L184.028 491.203L182.37 490.745L180.737 490.281L179.099 489.804L177.517 489.331L176.122 488.905L174.715 488.465L173.177 487.975L171.875 487.551L170.06 486.947L168.631 486.46L167.101 485.927L165.799 485.466L164.198 484.887L162.643 484.313L161.102 483.733L159.722 483.203L158.182 482.6L156.684 482.003L155.047 481.337L153.646 480.756L152.185 480.14L150.708 479.506L149.25 478.869L147.738 478.196ZM188.929 201.593V231.022H203.643V201.593H188.929ZM215.447 231.022V201.593H230.161V231.022H215.447ZM241.933 201.593V231.022H256.648V201.593H241.933ZM268.403 231.022V201.593H283.118V231.022H268.403ZM294.874 201.593V231.022H309.588V201.593H294.874ZM250.762 419.366C299.522 419.366 339.049 379.839 339.049 331.079C339.049 282.319 299.522 242.791 250.762 242.791C202.002 242.791 162.474 282.319 162.474 331.079C162.474 379.839 202.002 419.366 250.762 419.366ZM244.876 260.449V334.022L188.961 313.421V325.193L256.648 351.679V260.449H244.876Z" fill="#FF0909"/>
</svg>
