<svg width="37" height="25" viewBox="0 0 37 25" fill="none" xmlns="http://www.w3.org/2000/svg">
<path fill-rule="evenodd" clip-rule="evenodd" d="M3.49449 0.657227H32.9528C34.7579 0.657227 36.2236 2.13323 36.2236 3.9538V21.5326C36.2236 23.3532 34.7579 24.8287 32.9528 24.8287H3.49449C1.68935 24.8287 0.223633 23.3532 0.223633 21.5326V3.9538C0.223633 2.13323 1.68935 0.657227 3.49449 0.657227Z" fill="#ED5565"/>
<mask id="mask0_14_1702" style="mask-type:luminance" maskUnits="userSpaceOnUse" x="0" y="0" width="37" height="25">
<path fill-rule="evenodd" clip-rule="evenodd" d="M3.49449 0.657227H32.9528C34.7579 0.657227 36.2236 2.13323 36.2236 3.9538V21.5326C36.2236 23.3532 34.7579 24.8287 32.9528 24.8287H3.49449C1.68935 24.8287 0.223633 23.3532 0.223633 21.5326V3.9538C0.223633 2.13323 1.68935 0.657227 3.49449 0.657227Z" fill="white"/>
</mask>
<g mask="url(#mask0_14_1702)">
<path fill-rule="evenodd" clip-rule="evenodd" d="M0.223633 8.8858H36.738V0.657227H0.223633V8.8858Z" fill="#3BAFD9"/>
</g>
<mask id="mask1_14_1702" style="mask-type:luminance" maskUnits="userSpaceOnUse" x="0" y="0" width="37" height="25">
<path fill-rule="evenodd" clip-rule="evenodd" d="M3.49449 0.657227H32.9528C34.7579 0.657227 36.2236 2.13323 36.2236 3.9538V21.5326C36.2236 23.3532 34.7579 24.8287 32.9528 24.8287H3.49449C1.68935 24.8287 0.223633 23.3532 0.223633 21.5326V3.9538C0.223633 2.13323 1.68935 0.657227 3.49449 0.657227Z" fill="white"/>
</mask>
<g mask="url(#mask1_14_1702)">
<path fill-rule="evenodd" clip-rule="evenodd" d="M0.223633 16.0857H36.738V9.91431H0.223633V16.0857Z" fill="#F5F7F9"/>
</g>
<mask id="mask2_14_1702" style="mask-type:luminance" maskUnits="userSpaceOnUse" x="0" y="0" width="37" height="25">
<path fill-rule="evenodd" clip-rule="evenodd" d="M3.49449 0.657227H32.9528C34.7579 0.657227 36.2236 2.13323 36.2236 3.9538V21.5326C36.2236 23.3532 34.7579 24.8287 32.9528 24.8287H3.49449C1.68935 24.8287 0.223633 23.3532 0.223633 21.5326V3.9538C0.223633 2.13323 1.68935 0.657227 3.49449 0.657227Z" fill="white"/>
</mask>
<g mask="url(#mask2_14_1702)">
<path fill-rule="evenodd" clip-rule="evenodd" d="M0.223633 25.3429H36.738V17.1143H0.223633V25.3429Z" fill="#51C161"/>
</g>
<path fill-rule="evenodd" clip-rule="evenodd" d="M7.72716 7.01287C7.72716 7.01441 7.72202 7.01544 7.71688 7.0175C7.59345 7.07767 7.46488 7.12807 7.32602 7.16818C6.02488 7.55081 4.66716 6.8051 4.29688 5.50292C4.22488 5.25195 4.19916 4.99841 4.20431 4.75001C4.20945 4.5011 4.25059 4.24858 4.33288 3.99967C4.75974 2.70778 6.15345 1.99807 7.43916 2.41515C7.57288 2.45887 7.69631 2.51338 7.81974 2.57664C7.82488 2.57818 7.82488 2.57972 7.83002 2.58075C7.87631 2.59515 7.92259 2.57098 7.93802 2.52675C7.94831 2.49127 7.93288 2.45321 7.90716 2.43264C7.60888 2.17138 7.25402 1.96515 6.84773 1.83452C5.23802 1.31098 3.48945 2.20224 2.94945 3.8243C2.85174 4.12515 2.80031 4.43064 2.79516 4.73098C2.78488 5.03184 2.82088 5.33835 2.90831 5.64178C3.37116 7.27721 5.07859 8.21372 6.71402 7.73287C7.12031 7.61355 7.48545 7.41607 7.79916 7.16304C7.82488 7.1435 7.84031 7.10595 7.83002 7.06995C7.81974 7.02521 7.77345 7.00001 7.72716 7.01287Z" fill="white"/>
<path fill-rule="evenodd" clip-rule="evenodd" d="M9.48059 6.82861C9.76345 6.82861 9.99488 7.05901 9.99488 7.3429C9.99488 7.6273 9.76345 7.85718 9.48059 7.85718C9.19774 7.85718 8.96631 7.6273 8.96631 7.3429C8.96631 7.05901 9.19774 6.82861 9.48059 6.82861Z" fill="#F9FDFD"/>
<path fill-rule="evenodd" clip-rule="evenodd" d="M11.5377 6.82861C11.8206 6.82861 12.052 7.05901 12.052 7.3429C12.052 7.6273 11.8206 7.85718 11.5377 7.85718C11.2549 7.85718 11.0234 7.6273 11.0234 7.3429C11.0234 7.05901 11.2549 6.82861 11.5377 6.82861Z" fill="#F9FDFD"/>
<path fill-rule="evenodd" clip-rule="evenodd" d="M11.5377 4.77148C11.8206 4.77148 12.052 5.00188 12.052 5.28577C12.052 5.57017 11.8206 5.80006 11.5377 5.80006C11.2549 5.80006 11.0234 5.57017 11.0234 5.28577C11.0234 5.00188 11.2549 4.77148 11.5377 4.77148Z" fill="#F9FDFD"/>
<path fill-rule="evenodd" clip-rule="evenodd" d="M13.5949 2.71436C13.8777 2.71436 14.1091 2.94476 14.1091 3.22864C14.1091 3.51304 13.8777 3.74293 13.5949 3.74293C13.312 3.74293 13.0806 3.51304 13.0806 3.22864C13.0806 2.94476 13.312 2.71436 13.5949 2.71436Z" fill="#F9FDFD"/>
<path fill-rule="evenodd" clip-rule="evenodd" d="M13.5949 4.77148C13.8777 4.77148 14.1091 5.00188 14.1091 5.28577C14.1091 5.57017 13.8777 5.80006 13.5949 5.80006C13.312 5.80006 13.0806 5.57017 13.0806 5.28577C13.0806 5.00188 13.312 4.77148 13.5949 4.77148Z" fill="#F9FDFD"/>
<path fill-rule="evenodd" clip-rule="evenodd" d="M13.5949 6.82861C13.8777 6.82861 14.1091 7.05901 14.1091 7.3429C14.1091 7.6273 13.8777 7.85718 13.5949 7.85718C13.312 7.85718 13.0806 7.6273 13.0806 7.3429C13.0806 7.05901 13.312 6.82861 13.5949 6.82861Z" fill="#F9FDFD"/>
<path fill-rule="evenodd" clip-rule="evenodd" d="M15.652 2.71436C15.9348 2.71436 16.1663 2.94476 16.1663 3.22864C16.1663 3.51304 15.9348 3.74293 15.652 3.74293C15.3691 3.74293 15.1377 3.51304 15.1377 3.22864C15.1377 2.94476 15.3691 2.71436 15.652 2.71436Z" fill="#F9FDFD"/>
<path fill-rule="evenodd" clip-rule="evenodd" d="M15.652 4.77148C15.9348 4.77148 16.1663 5.00188 16.1663 5.28577C16.1663 5.57017 15.9348 5.80006 15.652 5.80006C15.3691 5.80006 15.1377 5.57017 15.1377 5.28577C15.1377 5.00188 15.3691 4.77148 15.652 4.77148Z" fill="#F9FDFD"/>
<path fill-rule="evenodd" clip-rule="evenodd" d="M15.652 6.82861C15.9348 6.82861 16.1663 7.05901 16.1663 7.3429C16.1663 7.6273 15.9348 7.85718 15.652 7.85718C15.3691 7.85718 15.1377 7.6273 15.1377 7.3429C15.1377 7.05901 15.3691 6.82861 15.652 6.82861Z" fill="#F9FDFD"/>
<path fill-rule="evenodd" clip-rule="evenodd" d="M17.7091 2.71436C17.992 2.71436 18.2234 2.94476 18.2234 3.22864C18.2234 3.51304 17.992 3.74293 17.7091 3.74293C17.4263 3.74293 17.1948 3.51304 17.1948 3.22864C17.1948 2.94476 17.4263 2.71436 17.7091 2.71436Z" fill="#F9FDFD"/>
<path fill-rule="evenodd" clip-rule="evenodd" d="M17.7091 4.77148C17.992 4.77148 18.2234 5.00188 18.2234 5.28577C18.2234 5.57017 17.992 5.80006 17.7091 5.80006C17.4263 5.80006 17.1948 5.57017 17.1948 5.28577C17.1948 5.00188 17.4263 4.77148 17.7091 4.77148Z" fill="#F9FDFD"/>
<path fill-rule="evenodd" clip-rule="evenodd" d="M17.7091 6.82861C17.992 6.82861 18.2234 7.05901 18.2234 7.3429C18.2234 7.6273 17.992 7.85718 17.7091 7.85718C17.4263 7.85718 17.1948 7.6273 17.1948 7.3429C17.1948 7.05901 17.4263 6.82861 17.7091 6.82861Z" fill="#F9FDFD"/>
</svg>
